<?xml version="1.0" standalone="no"?>
<!DOCTYPE svg PUBLIC "-//W3C//DTD SVG 1.1//EN" "http://www.w3.org/Graphics/SVG/1.1/DTD/svg11.dtd" >
<svg xmlns="http://www.w3.org/2000/svg" xmlns:xlink="http://www.w3.org/1999/xlink" version="1.1">
<metadata>
Created by FontForge 20200427 at Mon Dec  6 20:06:22 2010
 By www
Generated in 2010 by FontLab Studio. Copyright info pending.
</metadata>
<defs>
<font id="Gota-Light" horiz-adv-x="786" >
  <font-face 
    font-family="Gota Light"
    font-weight="300"
    font-stretch="normal"
    units-per-em="1000"
    panose-1="0 0 0 0 0 0 0 0 0 0"
    ascent="750"
    descent="-250"
    x-height="697.5"
    cap-height="700"
    bbox="-9 -210.25 1430 918"
    underline-thickness="50"
    underline-position="-150"
    unicode-range="U+0020-2026"
  />
<missing-glyph horiz-adv-x="361" 
 />
    <glyph glyph-name=".notdef" horiz-adv-x="361" 
 />
    <glyph glyph-name=".null" horiz-adv-x="0" 
 />
    <glyph glyph-name="nonmarkingreturn" horiz-adv-x="333" 
 />
    <glyph glyph-name="space" unicode=" " horiz-adv-x="361" 
 />
    <glyph glyph-name="exclam" unicode="!" horiz-adv-x="139" 
d="M89 691v-590q0 -12 -12.5 -12t-12.5 12v590q0 8 6 11.5t12.5 0t6.5 -11.5zM77 35q7 0 13 -5.5t6 -13.5t-5.5 -13.5t-13.5 -5.5q-19 0 -19 19q0 8 5.5 13.5t13.5 5.5z" />
    <glyph glyph-name="quotedbl" unicode="&#x22;" horiz-adv-x="150" 
d="M29 490v193q0 12 12.5 12t12.5 -12v-193q0 -12 -12.5 -12t-12.5 12zM101 490v193q0 12 12.5 12t12.5 -12v-193q0 -12 -12.5 -12t-12.5 12z" />
    <glyph glyph-name="quotesingle" unicode="'" horiz-adv-x="92" 
d="M34 488v193q0 12 12.5 12t12.5 -12v-193q0 -12 -12.5 -12t-12.5 12z" />
    <glyph glyph-name="comma" unicode="," horiz-adv-x="144" 
d="M92 26v-86q0 -10 -7.5 -14t-15 0t-7.5 14v86q0 14 15 14t15 -14z" />
    <glyph glyph-name="period" unicode="." horiz-adv-x="137" 
d="M69 38q9 0 15 -6t6 -15q0 -21 -21 -21q-22 0 -22 21q0 9 6.5 15t15.5 6z" />
    <glyph glyph-name="zero" unicode="0" horiz-adv-x="791" 
d="M609 0h-416q-55 0 -98 42.5t-43 97.5v418q0 55 44 98.5t98 43.5h414q54 0 98 -43.5t44 -98.5v-418q0 -55 -43 -97.5t-98 -42.5zM121 646l526 -522q6 -6 3.5 -12.5t-9 -8t-12.5 3.5l-526 521q-26 -32 -26 -71v-417q0 -45 35.5 -80t80.5 -35h415q45 0 81 35t36 80v417
q0 46 -36.5 82t-81.5 36h-412q-40 0 -74 -29z" />
    <glyph glyph-name="one" unicode="1" horiz-adv-x="748" 
d="M367 25v540q0 46 -32 78t-77 32h-207q-8 0 -12 6.5t0 12.5t12 6h207q54 0 94 -40t40 -94v-541h315q8 0 11.5 -6t0 -12.5t-11.5 -6.5h-656q-8 0 -11.5 6t0 12.5t11.5 6.5h316z" />
    <glyph glyph-name="two" unicode="2" horiz-adv-x="769" 
d="M48 196q0 69 43.5 118.5t113.5 49.5h387q44 0 74 32t37.5 78t1 91.5t-36.5 77.5t-74 32h-537q-8 0 -11.5 6.5t0 12.5t11.5 6h537q53 0 89 -37t44.5 -90t-0.5 -106.5t-45.5 -90.5t-90.5 -37h-386q-60 0 -96 -42t-36 -100v-172h644q12 0 12 -12.5t-12 -12.5h-644
q-25 0 -25 25v171z" />
    <glyph glyph-name="three" unicode="3" horiz-adv-x="779" 
d="M741 566v-93q0 -39 -24 -72.5t-61 -49.5q37 -13 61 -47t24 -74v-97q0 -55 -39 -94t-94 -39h-547q-12 0 -12 12.5t12 12.5h546q47 0 78 32t31 76v97q0 44 -31 76.5t-78 32.5h-546q-12 0 -12 12.5t12 12.5h546q47 0 78 32.5t31 76.5v93q0 45 -31 77.5t-78 32.5h-546
q-12 0 -12 12t12 12h547q55 0 94 -39t39 -95z" />
    <glyph glyph-name="four" unicode="4" horiz-adv-x="797" 
d="M731 336v353q0 12 13 12t13 -12v-681q0 -12 -13 -12t-13 12v302h-548q-54 0 -94 40t-40 94v244q0 8 6.5 11.5t12.5 0t6 -11.5v-243q0 -46 32 -77.5t78 -31.5h547z" />
    <glyph glyph-name="five" unicode="5" horiz-adv-x="757" 
d="M49 675q0 25 25 25h632q12 0 12 -12.5t-12 -12.5h-632v-300h518q54 0 90.5 -38.5t45.5 -93.5t0.5 -110.5t-44.5 -94t-89 -38.5h-537q-12 0 -12 12.5t12 12.5h537q44 0 74 33.5t37 81.5t-0.5 95.5t-38 81t-74.5 33.5h-519q-25 0 -25 25v300z" />
    <glyph glyph-name="six" unicode="6" horiz-adv-x="790" 
d="M608 364q47 0 81.5 -27t49.5 -67.5t15 -87.5t-16 -87.5t-50 -67.5t-80 -27h-413q-71 0 -108.5 42.5t-37.5 109.5v400q0 67 37 107.5t109 40.5h522q8 0 11.5 -6t0 -12.5t-11.5 -6.5h-522q-58 0 -89.5 -32t-31.5 -91v-188h534zM608 25q32 0 58 17.5t39.5 45t20 61t0.5 67
t-19 61t-39 45t-60 17.5h-534l1 -186q0 -59 31.5 -93.5t88.5 -34.5h413z" />
    <glyph glyph-name="seven" unicode="7" horiz-adv-x="767" 
d="M703 551l-590 -547q-6 -6 -13 -3.5t-9 9t3 12.5l593 549q33 29 21.5 66.5t-54.5 37.5h-609q-12 0 -12 12.5t12 12.5h609q40 0 63.5 -25.5t19.5 -61t-34 -62.5z" />
    <glyph glyph-name="eight" unicode="8" horiz-adv-x="781" 
d="M741 566v-93q0 -40 -24 -73t-62 -49q37 -13 61.5 -47t24.5 -74v-97q0 -55 -39 -94t-94 -39h-426q-55 0 -94 39t-39 94v97q0 40 24.5 74t61.5 47q-38 16 -62 49t-24 73v93q0 55 39 94.5t94 39.5h426q55 0 94 -39.5t39 -94.5zM607 675h-424q-46 0 -77.5 -32.5t-31.5 -76.5
v-93q0 -44 31.5 -76.5t77.5 -32.5h424q47 0 78 32.5t31 76.5v93q0 45 -31 77t-78 32zM607 339h-424q-46 0 -77.5 -32.5t-31.5 -76.5v-97q0 -44 31.5 -76t77.5 -32h424q47 0 78 32t31 76v97q0 44 -31 76.5t-78 32.5z" />
    <glyph glyph-name="nine" unicode="9" horiz-adv-x="781" 
d="M716 339h-533q-41 0 -72.5 20t-47.5 52t-23.5 71t0.5 78t24.5 71t47.5 52t71 20h412q72 0 109 -43t37 -111v-393q0 -68 -37.5 -112t-108.5 -44h-522q-12 0 -12 12.5t12 12.5h522q57 0 89 36t32 96v182zM595 678h-412q-32 0 -58 -17.5t-39.5 -45t-20 -61t-0.5 -67t19 -61
t39 -45t60 -17.5h533v184q0 60 -31.5 95t-89.5 35z" />
    <glyph glyph-name="colon" unicode=":" horiz-adv-x="138" 
d="M71 38q9 0 15 -6t6 -15q0 -21 -21 -21q-22 0 -22 21q0 9 6.5 15t15.5 6zM71 485q9 0 15 -6t6 -15q0 -21 -21 -21q-22 0 -22 21q0 9 6.5 15t15.5 6z" />
    <glyph glyph-name="semicolon" unicode=";" horiz-adv-x="138" 
d="M71 485q9 0 15 -6t6 -15q0 -21 -21 -21q-22 0 -22 21q0 9 6.5 15t15.5 6zM85 22v-86q0 -10 -7.5 -14t-15 0t-7.5 14v86q0 14 15 14t15 -14z" />
    <glyph glyph-name="question" unicode="?" horiz-adv-x="708" 
d="M211 193q0 68 43.5 117.5t112.5 49.5h156q37 0 66.5 17.5t45 45.5t22.5 61.5t0 67.5t-22 61.5t-44 45t-66 17.5h-483q-12 0 -12 12t12 12h484q43 0 77.5 -20t52 -52.5t26 -71t0 -77.5t-26.5 -71.5t-53 -52.5t-80 -20h-155q-59 0 -95 -42t-36 -100v-95q0 -8 -6 -11.5
t-12.5 0t-6.5 11.5v95zM223 35q7 0 13 -5.5t6 -13.5t-5.5 -13.5t-13.5 -5.5q-19 0 -19 19q0 8 5.5 13.5t13.5 5.5z" />
    <glyph glyph-name="A" unicode="A" horiz-adv-x="793" 
d="M598 675h-394q-52 0 -91 -33.5t-39 -84.5v-221h654v221q0 51 -39 84.5t-91 33.5zM728 314h-654v-306q0 -12 -13 -12q-12 0 -12 12v549q0 62 46.5 102.5t107.5 40.5h396q61 0 107.5 -40.5t46.5 -102.5v-549q0 -12 -12 -12q-13 0 -13 12v306z" />
    <glyph glyph-name="B" unicode="B" horiz-adv-x="781" 
d="M659 350q41 -18 66 -59.5t27.5 -90t-10 -94.5t-48 -76t-85.5 -30h-534q-12 0 -19 7.5t-7 19.5v646q0 12 7 19.5t19 7.5h525q49 0 85.5 -30t49.5 -75.5t11.5 -94t-25 -90.5t-62.5 -60zM609 25q33 0 58.5 17.5t39 45t19.5 60.5t-1 66.5t-21 61t-41 45t-61 17.5h-528v-313
h535zM74 676v-314h528q47 0 78 32.5t37.5 78.5t-1.5 92t-39.5 78.5t-76.5 32.5h-526z" />
    <glyph glyph-name="C" unicode="C" horiz-adv-x="761" 
d="M712 700q8 0 12 -6t0 -12.5t-12 -6.5h-529q-45 0 -77 -32t-32 -77v-435q0 -44 32 -75.5t77 -31.5h529q8 0 12 -6t0 -12.5t-12 -6.5h-529q-55 0 -94.5 39.5t-39.5 92.5v436q0 53 40 93t94 40h529z" />
    <glyph glyph-name="D" unicode="D" horiz-adv-x="788" 
d="M606 0h-531q-11 0 -18.5 8t-7.5 19v646q0 11 7.5 19t18.5 8h530q54 0 98.5 -44t44.5 -98v-417q0 -55 -43.5 -98t-98.5 -43zM605 675h-531v-650q90 0 266 0.5t266 0.5q45 0 80.5 35t35.5 80v416q0 46 -36 82t-81 36z" />
    <glyph glyph-name="E" unicode="E" 
d="M48 471v96q0 55 39 94t94 39h547q8 0 11.5 -6t0 -12.5t-11.5 -6.5h-547q-46 0 -77 -32t-31 -76v-96q0 -44 31 -76.5t77 -32.5h547q8 0 11.5 -6t0 -12.5t-11.5 -6.5h-547q-46 0 -77 -32.5t-31 -76.5v-96q0 -44 31 -76t77 -32h547q8 0 11.5 -6t0 -12.5t-11.5 -6.5h-547
q-55 0 -94 39t-39 94v96q0 40 24 74t61 47q-38 16 -61.5 49t-23.5 73z" />
    <glyph glyph-name="F" unicode="F" horiz-adv-x="776" 
d="M730 356q8 0 12 -6t0 -12t-12 -6h-656v-324q0 -12 -12.5 -12t-12.5 12v549q0 62 46.5 102.5t107.5 40.5h528q8 0 11.5 -6t0 -12.5t-11.5 -6.5h-527q-52 0 -91 -33.5t-39 -84.5v-201h656z" />
    <glyph glyph-name="G" unicode="G" 
d="M722 700q13 0 12.5 -12.5t-12.5 -12.5h-539q-45 0 -77 -32t-32 -77v-434q0 -44 32 -75.5t77 -31.5q39 0 215 -0.5t216 -0.5q46 0 77.5 32.5t31.5 76.5v108q0 44 -32 76t-77 32h-248q-8 0 -11.5 6.5t0 12.5t11.5 6h249q54 0 93.5 -39t39.5 -94v-108q0 -55 -39 -94t-94 -39
h-432q-54 0 -94 39t-40 93v435q0 55 39.5 94t94.5 39h539z" />
    <glyph glyph-name="H" unicode="H" horiz-adv-x="795" 
d="M730 361v328q0 12 13 12t13 -12v-681q0 -12 -13 -12t-13 12v328h-656v-328q0 -12 -12.5 -12t-12.5 12v681q0 12 12.5 12t12.5 -12v-328h656z" />
    <glyph glyph-name="I" unicode="I" horiz-adv-x="754" 
d="M391 675v-650h316q8 0 11.5 -6t0 -12.5t-11.5 -6.5h-656q-8 0 -11.5 6t-0.5 12.5t11 6.5h316v650h-316q-8 0 -11 6.5t0.5 12.5t11.5 6h656q8 0 11.5 -6t0 -12.5t-11.5 -6.5h-316z" />
    <glyph glyph-name="J" unicode="J" horiz-adv-x="783" 
d="M743 673v-539q0 -55 -39.5 -94.5t-94.5 -39.5h-432q-55 0 -94.5 39.5t-39.5 94.5v128q0 8 6.5 11.5t12.5 0t6 -11.5v-128q0 -45 32 -77t77 -32h432q44 0 76 32t32 77q0 91 0.5 270.5t0.5 270.5h-414q-12 0 -12 12.5t12 12.5h413q11 0 18.5 -8t7.5 -19z" />
    <glyph glyph-name="K" unicode="K" horiz-adv-x="770" 
d="M50 688q0 8 6 12t12.5 0t6.5 -12v-520l641 530q7 5 14 2.5t8 -9t-4 -11.5l-369 -305l370 -357q6 -6 4 -13t-8.5 -8.5t-13.5 3.5l-371 359l-271 -223v-125q0 -8 -6.5 -11.5t-12.5 -0.5t-6 12v677z" />
    <glyph glyph-name="L" unicode="L" horiz-adv-x="747" 
d="M49 693q0 8 6.5 11.5t12.5 0t6 -11.5v-559q0 -45 32 -77t77 -32h516q9 0 12 -6t0 -12.5t-12 -6.5h-516q-55 0 -94.5 39.5t-39.5 94.5v559z" />
    <glyph glyph-name="M" unicode="M" horiz-adv-x="1037" 
d="M651 567q0 38 19 68t49.5 45.5t67.5 23t74 0.5t67.5 -22.5t49.5 -45.5t19 -68v-558q0 -5 -3.5 -9t-8.5 -4q-13 0 -13 13v558q0 43 -30.5 73t-74 37t-87 0t-74 -37t-30.5 -74v-445q0 -34 -17 -61t-43.5 -41t-59 -21t-65 -0.5t-59 20t-43.5 40.5t-17 61l-1 446
q0 44 -30.5 73.5t-74.5 37t-87.5 0.5t-74 -36.5t-30.5 -72.5v-558q0 -13 -13 -13q-12 0 -12 13v558q0 38 19 68t49.5 45t67.5 22.5t74.5 0t68 -23.5t49.5 -46t19 -68l1 -446q0 -38 26 -64t63.5 -32t75 0.5t63.5 33t26 64.5v445z" />
    <glyph glyph-name="N" unicode="N" horiz-adv-x="792" 
d="M49 570q0 38 20 68t52 45.5t71 22.5t77.5 0t70.5 -22t52.5 -44.5t20.5 -66.5v-434q0 -44 32.5 -74t78.5 -37.5t92.5 -1t79 36.5t32.5 74v557q0 12 12.5 12t12.5 -12v-557q0 -53 -37.5 -89t-90.5 -44.5t-106.5 0.5t-91 45.5t-37.5 90.5v428q0 44 -32.5 74t-79 37.5t-93 1
t-79 -36.5t-32.5 -74v-558q0 -8 -6 -11.5t-12.5 0t-6.5 11.5v558z" />
    <glyph glyph-name="O" unicode="O" 
d="M606 0h-416q-55 0 -98 42.5t-43 97.5v418q0 55 44 98.5t98 43.5h414q54 0 98 -43.5t44 -98.5v-418q0 -55 -43 -97.5t-98 -42.5zM604 675h-412q-46 0 -82 -36.5t-36 -81.5v-417q0 -45 36 -80t81 -35h414q45 0 81 35t36 80v417q0 45 -36 81.5t-82 36.5z" />
    <glyph glyph-name="P" unicode="P" horiz-adv-x="758" 
d="M49 9v664q0 11 7 19t18 8h502q50 0 87.5 -28.5t54.5 -71.5t17.5 -93.5t-16 -93.5t-54 -71.5t-89.5 -28.5h-502v-304q0 -12 -12.5 -12t-12.5 12zM575 336q38 0 68 18.5t45.5 48.5t22.5 66.5t-0.5 72.5t-23 66t-45 48.5t-66.5 18.5h-502v-339h501z" />
    <glyph glyph-name="Q" unicode="Q" 
d="M654 114q43 -43 27 -78.5t-75 -35.5h-416q-55 0 -98 42.5t-43 97.5v418q0 54 44 98t98 44h413q55 0 99 -44t44 -98v-443q0 -12 -12.5 -12t-12.5 12v442q0 45 -36.5 81.5t-81.5 36.5h-412q-46 0 -82 -36.5t-36 -81.5v-417q0 -45 35.5 -80t80.5 -35h415q42 0 52 20.5
t-21 51.5l-253 250q-5 6 -2.5 12.5t8.5 8.5t12 -3z" />
    <glyph glyph-name="R" unicode="R" horiz-adv-x="792" 
d="M49 12v661q0 12 7 19.5t19 7.5h533q39 0 70.5 -20t47.5 -52.5t24 -71t1 -77.5t-23 -71t-47.5 -52t-72.5 -20h-193v-220q0 -38 26 -64.5t64 -26.5h232q14 0 14 -12q0 -13 -14 -13h-233q-48 0 -81 34.5t-33 82.5v220h-316v-325q0 -12 -12.5 -12t-12.5 12zM608 361
q39 0 67 23.5t40.5 58t12 75.5t-13.5 75.5t-40.5 58t-65.5 23.5h-534v-315q57 0 264.5 0.5t269.5 0.5z" />
    <glyph glyph-name="S" unicode="S" horiz-adv-x="794" 
d="M615 0h-549q-12 0 -12 12.5t12 12.5h550q44 0 73.5 32t36 77.5t-1 91t-37.5 78t-74 32.5h-428q-54 0 -90.5 37.5t-45.5 91t-0.5 107t44.5 91t89 37.5h528q8 0 11.5 -6t0 -12.5t-11.5 -6.5h-528q-44 0 -73.5 -32.5t-36 -78.5t0.5 -92t37 -78.5t74 -32.5h434q38 0 67.5 -20
t44.5 -51.5t22.5 -70t0 -77.5t-23 -70.5t-46 -51.5t-68.5 -20z" />
    <glyph glyph-name="T" unicode="T" horiz-adv-x="752" 
d="M44 675q-8 0 -11.5 6.5t0 12.5t11.5 6h670q8 0 11.5 -6t0 -12.5t-11.5 -6.5h-322v-667q0 -12 -13 -12t-13 12q0 79 0.5 333.5t0.5 333.5h-323z" />
    <glyph glyph-name="U" unicode="U" 
d="M606 0h-416q-54 0 -97.5 43t-43.5 97v553q0 8 6.5 11.5t12.5 0t6 -11.5v-553q0 -45 36 -80t81 -35h415q45 0 80.5 35t35.5 80v553q0 8 6 11.5t12.5 0t6.5 -11.5v-553q0 -55 -43 -97.5t-98 -42.5z" />
    <glyph glyph-name="V" unicode="V" horiz-adv-x="772" 
d="M720 694q3 8 10 9t11.5 -5t1.5 -14l-227 -592q-24 -61 -78 -84.5t-108 0t-78 84.5l-225 592q-3 8 1.5 14t11.5 5t10 -9l228 -594q19 -51 62.5 -70t87 0t62.5 70z" />
    <glyph glyph-name="W" unicode="W" horiz-adv-x="1038" 
d="M396 136q0 -38 -19 -68t-49.5 -45.5t-67.5 -23t-74 -0.5t-67.5 22.5t-49.5 45.5t-19 68v559q0 12 12 12q13 0 13 -12v-559q0 -43 30.5 -73t74 -36.5t87 0.5t74 36.5t30.5 73.5v446q0 34 17 61t43.5 41t59 20.5t65 0t59 -20t43.5 -40.5t17 -61v-446q0 -44 30.5 -73.5
t74.5 -37t88 -0.5t74.5 36.5t30.5 72.5v559q0 12 12 12q13 0 13 -12v-559q0 -53 -36 -89t-87 -44t-102 0.5t-87 45t-36 89.5v446q0 38 -26 64t-63.5 32t-74.5 -0.5t-63.5 -33t-26.5 -64.5v-445z" />
    <glyph glyph-name="X" unicode="X" horiz-adv-x="741" 
d="M370 366l325 328q9 9 17.5 0t0.5 -18l-326 -328l326 -327q8 -9 -0.5 -18t-17.5 0l-325 328l-326 -328q-6 -6 -12.5 -3.5t-8 9t3.5 12.5l325 327l-325 328q-6 6 -4 13t8.5 8.5t12.5 -3.5z" />
    <glyph glyph-name="Y" unicode="Y" horiz-adv-x="754" 
d="M377 371l325 328q9 9 18 0t0 -18l-331 -333v-338q0 -12 -12.5 -12t-12.5 12v338l-330 333q-9 9 0 18t18 0z" />
    <glyph glyph-name="Z" unicode="Z" horiz-adv-x="779" 
d="M64 149q99 66 311.5 206.5t322.5 215.5q35 23 22.5 63.5t-55.5 40.5h-609q-12 0 -12 12.5t12 12.5h609q40 0 63.5 -28t19.5 -64t-34 -57q-94 -63 -307.5 -204t-326.5 -217q-35 -23 -22.5 -64t55.5 -41h624q12 0 12 -12.5t-12 -12.5h-624q-39 0 -62.5 28.5t-20 64.5
t33.5 56z" />
    <glyph glyph-name="grave" unicode="`" horiz-adv-x="283" 
d="M59 698l187 -107q7 -4 6.5 -10.5t-6 -9t-13.5 0.5l-186 104q-7 5 -7 11t6 10.5t13 0.5z" />
    <glyph glyph-name="a" unicode="a" horiz-adv-x="790" 
d="M192 381h533v139q0 63 -32.5 109t-88.5 46h-522q-12 0 -12 12.5t12 12.5h522q70 0 108 -54t38 -125v-345q0 -71 -38 -125t-108 -54h-412q-40 0 -71 21t-47.5 55t-24.5 75t-0.5 82t23.5 75t47.5 55t72.5 21zM192 22h412q56 0 88.5 46t32.5 109v180h-533q-34 0 -60 -18.5
t-39 -48t-19 -65t0.5 -71.5t20 -65.5t39.5 -48t58 -18.5z" />
    <glyph glyph-name="b" unicode="b" horiz-adv-x="783" 
d="M659 350q41 -18 66 -59.5t27.5 -90t-10 -94.5t-48 -76t-85.5 -30h-534q-12 0 -19 7.5t-7 19.5v646q0 12 7 19.5t19 7.5h525q49 0 85.5 -30t49.5 -75.5t11.5 -94t-25 -90.5t-62.5 -60zM609 25q33 0 58.5 17.5t39 45t19.5 60.5t-1 66.5t-21 61t-41 45t-61 17.5h-528v-313
h535zM74 676v-314h528q47 0 78 32.5t37.5 78.5t-1.5 92t-39.5 78.5t-76.5 32.5h-526z" />
    <glyph glyph-name="c" unicode="c" horiz-adv-x="761" 
d="M712 700q8 0 12 -6t0 -12.5t-12 -6.5h-529q-45 0 -77 -32t-32 -77v-435q0 -44 32 -75.5t77 -31.5h529q8 0 12 -6t0 -12.5t-12 -6.5h-529q-55 0 -94.5 39.5t-39.5 92.5v436q0 53 40 93t94 40h529z" />
    <glyph glyph-name="d" unicode="d" horiz-adv-x="788" 
d="M606 0h-531q-11 0 -18.5 8t-7.5 19v646q0 11 7.5 19t18.5 8h530q54 0 98.5 -44t44.5 -98v-417q0 -55 -43.5 -98t-98.5 -43zM605 675h-531v-650q90 0 266 0.5t266 0.5q45 0 80.5 35t35.5 80v416q0 46 -36 82t-81 36z" />
    <glyph glyph-name="e" unicode="e" horiz-adv-x="785" 
d="M608 336h-534l1 -172q0 -61 32 -100t88 -39h522q8 0 11.5 -6t0 -12.5t-11.5 -6.5h-522q-70 0 -108 47t-38 116v367q0 68 44 119t115 51h400q40 0 71 -20t47.5 -52t24.5 -71t0.5 -78t-23.5 -71t-47.5 -52t-72.5 -20zM608 675h-400q-57 0 -95 -43t-38 -103l-1 -168h534
q39 0 67 23.5t40.5 58t12 75.5t-13.5 75.5t-40.5 58t-65.5 23.5z" />
    <glyph glyph-name="f" unicode="f" horiz-adv-x="776" 
d="M730 356q8 0 12 -6t0 -12t-12 -6h-656v-324q0 -12 -12.5 -12t-12.5 12v549q0 62 46.5 102.5t107.5 40.5h528q8 0 11.5 -6t0 -12.5t-11.5 -6.5h-527q-52 0 -91 -33.5t-39 -84.5v-201h656z" />
    <glyph glyph-name="g" unicode="g" 
d="M722 700q13 0 12.5 -12.5t-12.5 -12.5h-539q-45 0 -77 -32t-32 -77v-434q0 -44 32 -75.5t77 -31.5q39 0 215 -0.5t216 -0.5q46 0 77.5 32.5t31.5 76.5v108q0 44 -32 76t-77 32h-248q-8 0 -11.5 6.5t0 12.5t11.5 6h249q54 0 93.5 -39t39.5 -94v-108q0 -55 -39 -94t-94 -39
h-432q-54 0 -94 39t-40 93v435q0 55 39.5 94t94.5 39h539z" />
    <glyph glyph-name="h" unicode="h" horiz-adv-x="797" 
d="M731 361v328q0 12 13 12t13 -12v-681q0 -12 -13 -12t-13 12v328h-656v-328q0 -12 -12.5 -12t-12.5 12v681q0 12 12.5 12t12.5 -12v-328h656z" />
    <glyph glyph-name="i" unicode="i" horiz-adv-x="762" 
d="M391 675v-650h316q8 0 11.5 -6t0 -12.5t-11.5 -6.5h-656q-8 0 -11.5 6t-0.5 12.5t11 6.5h316v650h-316q-8 0 -11 6.5t0.5 12.5t11.5 6h656q8 0 11.5 -6t0 -12.5t-11.5 -6.5h-316z" />
    <glyph glyph-name="j" unicode="j" horiz-adv-x="782" 
d="M742 689v-555q0 -55 -39.5 -94.5t-93.5 -39.5h-433q-54 0 -93.5 39.5t-39.5 94.5v128q0 8 6.5 11.5t12.5 0t6 -11.5v-128q0 -45 32 -77t77 -32h431q45 0 77 32t32 77v555q0 8 6.5 11.5t12.5 0t6 -11.5z" />
    <glyph glyph-name="k" unicode="k" horiz-adv-x="770" 
d="M50 688q0 8 6 12t12.5 0t6.5 -12v-520l641 530q7 5 14 2.5t8 -9t-4 -11.5l-369 -305l370 -357q6 -6 4 -13t-8.5 -8.5t-13.5 3.5l-371 359l-271 -223v-125q0 -8 -6.5 -11.5t-12.5 -0.5t-6 12v677z" />
    <glyph glyph-name="l" unicode="l" horiz-adv-x="747" 
d="M49 693q0 8 6.5 11.5t12.5 0t6 -11.5v-559q0 -45 32 -77t77 -32h516q9 0 12 -6t0 -12.5t-12 -6.5h-516q-55 0 -94.5 39.5t-39.5 94.5v559z" />
    <glyph glyph-name="m" unicode="m" horiz-adv-x="1037" 
d="M651 567q0 38 19 68t49.5 45.5t67.5 23t74 0.5t67.5 -22.5t49.5 -45.5t19 -68v-558q0 -5 -3.5 -9t-8.5 -4q-13 0 -13 13v558q0 43 -30.5 73t-74 37t-87 0t-74 -37t-30.5 -74v-445q0 -34 -17 -61t-43.5 -41t-59 -21t-65 -0.5t-59 20t-43.5 40.5t-17 61l-1 446
q0 44 -30.5 73.5t-74.5 37t-87.5 0.5t-74 -36.5t-30.5 -72.5v-558q0 -13 -13 -13q-12 0 -12 13v558q0 38 19 68t49.5 45t67.5 22.5t74.5 0t68 -23.5t49.5 -46t19 -68l1 -446q0 -38 26 -64t63.5 -32t75 0.5t63.5 33t26 64.5v445z" />
    <glyph glyph-name="n" unicode="n" horiz-adv-x="793" 
d="M49 570q0 38 20 68t52 45.5t71 22.5t77.5 0t70.5 -22t52.5 -44.5t20.5 -66.5v-434q0 -44 32.5 -74t78.5 -37.5t92.5 -1t79 36.5t32.5 74v557q0 12 12.5 12t12.5 -12v-557q0 -53 -37.5 -89t-90.5 -44.5t-106.5 0.5t-91 45.5t-37.5 90.5v428q0 44 -32.5 74t-79 37.5t-93 1
t-79 -36.5t-32.5 -74v-558q0 -8 -6 -11.5t-12.5 0t-6.5 11.5v558z" />
    <glyph glyph-name="o" unicode="o" 
d="M606 0h-416q-55 0 -98 42.5t-43 97.5v418q0 55 44 98.5t98 43.5h414q54 0 98 -43.5t44 -98.5v-418q0 -55 -43 -97.5t-98 -42.5zM604 675h-412q-46 0 -82 -36.5t-36 -81.5v-417q0 -45 36 -80t81 -35h414q45 0 81 35t36 80v417q0 45 -36 81.5t-82 36.5z" />
    <glyph glyph-name="p" unicode="p" horiz-adv-x="762" 
d="M49 9v664q0 11 7 19t18 8h502q50 0 87.5 -28.5t54.5 -71.5t17.5 -93.5t-16 -93.5t-54 -71.5t-89.5 -28.5h-502v-304q0 -12 -12.5 -12t-12.5 12zM575 336q38 0 68 18.5t45.5 48.5t22.5 66.5t-0.5 72.5t-23 66t-45 48.5t-66.5 18.5h-502v-339h501z" />
    <glyph glyph-name="q" unicode="q" 
d="M654 114q43 -43 27 -78.5t-75 -35.5h-416q-55 0 -98 42.5t-43 97.5v418q0 54 44 98t98 44h413q55 0 99 -44t44 -98v-443q0 -12 -12.5 -12t-12.5 12v442q0 45 -36.5 81.5t-81.5 36.5h-412q-46 0 -82 -36.5t-36 -81.5v-417q0 -45 35.5 -80t80.5 -35h415q42 0 52 20.5
t-21 51.5l-253 250q-5 6 -2.5 12.5t8.5 8.5t12 -3z" />
    <glyph glyph-name="r" unicode="r" horiz-adv-x="792" 
d="M49 12v661q0 12 7 19.5t19 7.5h533q39 0 70.5 -20t47.5 -52.5t24 -71t1 -77.5t-23 -71t-47.5 -52t-72.5 -20h-193v-220q0 -38 26 -64.5t64 -26.5h232q14 0 14 -12q0 -13 -14 -13h-233q-48 0 -81 34.5t-33 82.5v220h-316v-325q0 -12 -12.5 -12t-12.5 12zM608 361
q39 0 67 23.5t40.5 58t12 75.5t-13.5 75.5t-40.5 58t-65.5 23.5h-534v-315q57 0 264.5 0.5t269.5 0.5z" />
    <glyph glyph-name="s" unicode="s" horiz-adv-x="794" 
d="M615 0h-549q-12 0 -12 12.5t12 12.5h550q44 0 73.5 32t36 77.5t-1 91t-37.5 78t-74 32.5h-428q-54 0 -90.5 37.5t-45.5 91t-0.5 107t44.5 91t89 37.5h528q8 0 11.5 -6t0 -12.5t-11.5 -6.5h-528q-44 0 -73.5 -32.5t-36 -78.5t0.5 -92t37 -78.5t74 -32.5h434q38 0 67.5 -20
t44.5 -51.5t22.5 -70t0 -77.5t-23 -70.5t-46 -51.5t-68.5 -20z" />
    <glyph glyph-name="t" unicode="t" horiz-adv-x="778" 
d="M730 343h-656v-200q0 -52 39 -85t91 -33h527q8 0 11.5 -6t0 -12.5t-11.5 -6.5h-528q-62 0 -108 40t-46 102v549q0 12 12.5 12t12.5 -12v-324h656q8 0 12 -6t0 -12t-12 -6z" />
    <glyph glyph-name="u" unicode="u" 
d="M606 0h-416q-54 0 -97.5 43t-43.5 97v553q0 8 6.5 11.5t12.5 0t6 -11.5v-553q0 -45 36 -80t81 -35h415q45 0 80.5 35t35.5 80v553q0 8 6 11.5t12.5 0t6.5 -11.5v-553q0 -55 -43 -97.5t-98 -42.5z" />
    <glyph glyph-name="v" unicode="v" horiz-adv-x="772" 
d="M720 694q3 8 10 9t11.5 -5t1.5 -14l-227 -592q-24 -61 -78 -84.5t-108 0t-78 84.5l-225 592q-3 8 1.5 14t11.5 5t10 -9l228 -594q19 -51 62.5 -70t87 0t62.5 70z" />
    <glyph glyph-name="w" unicode="w" horiz-adv-x="1038" 
d="M396 136q0 -38 -19 -68t-49.5 -45.5t-67.5 -23t-74 -0.5t-67.5 22.5t-49.5 45.5t-19 68v559q0 12 12 12q13 0 13 -12v-559q0 -43 30.5 -73t74 -36.5t87 0.5t74 36.5t30.5 73.5v446q0 34 17 61t43.5 41t59 20.5t65 0t59 -20t43.5 -40.5t17 -61v-446q0 -44 30.5 -73.5
t74.5 -37t88 -0.5t74.5 36.5t30.5 72.5v559q0 12 12 12q13 0 13 -12v-559q0 -53 -36 -89t-87 -44t-102 0.5t-87 45t-36 89.5v446q0 38 -26 64t-63.5 32t-74.5 -0.5t-63.5 -33t-26.5 -64.5v-445z" />
    <glyph glyph-name="x" unicode="x" horiz-adv-x="741" 
d="M370 366l325 328q9 9 17.5 0t0.5 -18l-326 -328l326 -327q8 -9 -0.5 -18t-17.5 0l-325 328l-326 -328q-6 -6 -12.5 -3.5t-8 9t3.5 12.5l325 327l-325 328q-6 6 -4 13t8.5 8.5t12.5 -3.5z" />
    <glyph glyph-name="y" unicode="y" horiz-adv-x="792" 
d="M193 339q-71 0 -108.5 45t-37.5 117v189q0 8 6.5 12t13 0t6.5 -12v-189q0 -61 30.5 -99t89.5 -38h534l-1 328q0 13 13 13t13 -13v-513q0 -71 -38.5 -125t-107.5 -54h-522q-8 0 -11.5 6t0 12t11.5 6h522q56 0 88.5 46.5t32.5 109.5v159h-534z" />
    <glyph glyph-name="z" unicode="z" horiz-adv-x="779" 
d="M64 149q99 66 311.5 206.5t322.5 215.5q35 23 22.5 63.5t-55.5 40.5h-609q-12 0 -12 12.5t12 12.5h609q40 0 63.5 -28t19.5 -64t-34 -57q-94 -63 -307.5 -204t-326.5 -217q-35 -23 -22.5 -64t55.5 -41h624q12 0 12 -12.5t-12 -12.5h-624q-39 0 -62.5 28.5t-20 64.5
t33.5 56z" />
    <glyph glyph-name="exclamdown" unicode="&#xa1;" horiz-adv-x="139" 
d="M65 -197v590q0 12 12.5 12t12.5 -12v-590q0 -8 -6 -11.5t-12.5 0t-6.5 11.5zM77 459q-7 0 -13 5.5t-6 13.5t5.5 13.5t13.5 5.5q19 0 19 -19q0 -8 -5.5 -13.5t-13.5 -5.5z" />
    <glyph glyph-name="dieresis" unicode="&#xa8;" horiz-adv-x="377" 
d="M138 672h-86q-12 0 -12 12.5t12 12.5h86q12 0 12 -12.5t-12 -12.5zM329 672h-86q-12 0 -12 12.5t12 12.5h86q12 0 12 -12.5t-12 -12.5z" />
    <glyph glyph-name="acute" unicode="&#xb4;" horiz-adv-x="255" 
d="M31 591l187 107q7 4 13 -0.5t6 -10.5t-7 -11l-186 -104q-7 -4 -13 -0.5t-6 9.5t6 10z" />
    <glyph glyph-name="cedilla" unicode="&#xb8;" horiz-adv-x="216" 
d="M18 -145q-3 7 1.5 12t11.5 5t11 -7q19 -38 65 -38q42 0 60.5 24t2 48.5t-60.5 25.5q-12 0 -12 12v64q0 12 12.5 12t12.5 -12v-53q24 -2 41.5 -11.5t26 -22.5t11 -28t-3.5 -29.5t-17 -26.5t-30.5 -19.5t-42.5 -7.5q-64 0 -89 52z" />
    <glyph glyph-name="questiondown" unicode="&#xbf;" horiz-adv-x="708" 
d="M515 304q0 -68 -43.5 -117.5t-112.5 -49.5h-156q-37 0 -66.5 -17.5t-45 -45.5t-22.5 -61.5t0 -67.5t22 -61.5t44 -45t66 -17.5h483q12 0 12 -12t-12 -12h-484q-43 0 -77.5 20t-52 52.5t-26 71t0 77.5t26.5 71.5t53 52.5t80 20h155q59 0 95 42t36 100v95q0 8 6 11.5
t12.5 0t6.5 -11.5v-95zM503 462q-7 0 -13 6t-6 13q0 8 5.5 13.5t13.5 5.5q19 0 19 -19q0 -8 -5.5 -13.5t-13.5 -5.5z" />
    <glyph glyph-name="Agrave" unicode="&#xc0;" horiz-adv-x="793" 
d="M598 675h-394q-52 0 -91 -33.5t-39 -84.5v-221h654v221q0 51 -39 84.5t-91 33.5zM728 314h-654v-306q0 -12 -13 -12q-12 0 -12 12v549q0 62 46.5 102.5t107.5 40.5h396q61 0 107.5 -40.5t46.5 -102.5v-549q0 -12 -12 -12q-13 0 -13 12v306zM302 876l187 -107
q7 -4 6.5 -10.5t-6 -9t-13.5 0.5l-186 104q-7 5 -7 11t6 10.5t13 0.5z" />
    <glyph glyph-name="Aacute" unicode="&#xc1;" horiz-adv-x="793" 
d="M598 675h-394q-52 0 -91 -33.5t-39 -84.5v-221h654v221q0 51 -39 84.5t-91 33.5zM728 314h-654v-306q0 -12 -13 -12q-12 0 -12 12v549q0 62 46.5 102.5t107.5 40.5h396q61 0 107.5 -40.5t46.5 -102.5v-549q0 -12 -12 -12q-13 0 -13 12v306zM304 768l187 107q7 4 13 -0.5
t6 -10.5t-7 -11l-186 -104q-7 -4 -13 -0.5t-6 9.5t6 10z" />
    <glyph glyph-name="Acircumflex" unicode="&#xc2;" horiz-adv-x="793" 
d="M598 675h-394q-52 0 -91 -33.5t-39 -84.5v-221h654v221q0 51 -39 84.5t-91 33.5zM728 314h-654v-306q0 -12 -13 -12q-12 0 -12 12v549q0 62 46.5 102.5t107.5 40.5h396q61 0 107.5 -40.5t46.5 -102.5v-549q0 -12 -12 -12q-13 0 -13 12v306zM392 847q13 7 26 0l136 -78
q7 -4 6.5 -10.5t-6 -9.5t-12.5 0l-137 77l-137 -77q-7 -4 -12.5 -0.5t-5.5 9.5t6 11z" />
    <glyph glyph-name="Atilde" unicode="&#xc3;" horiz-adv-x="793" 
d="M598 675h-394q-52 0 -91 -33.5t-39 -84.5v-221h654v221q0 51 -39 84.5t-91 33.5zM728 314h-654v-306q0 -12 -13 -12q-12 0 -12 12v549q0 62 46.5 102.5t107.5 40.5h396q61 0 107.5 -40.5t46.5 -102.5v-549q0 -12 -12 -12q-13 0 -13 12v306zM271 823q22 -36 63 -43
q39 -6 72 22q39 34 87 26q47 -6 78 -51q7 -11 -3 -18q-8 -6 -14 4q-24 36 -64 42q-38 6 -71 -22q-40 -34 -88 -26q-47 8 -77 51q-8 10 2 18q9 6 15 -3z" />
    <glyph glyph-name="Adieresis" unicode="&#xc4;" horiz-adv-x="793" 
d="M598 675h-394q-52 0 -91 -33.5t-39 -84.5v-221h654v221q0 51 -39 84.5t-91 33.5zM728 314h-654v-306q0 -12 -13 -12q-12 0 -12 12v549q0 62 46.5 102.5t107.5 40.5h396q61 0 107.5 -40.5t46.5 -102.5v-549q0 -12 -12 -12q-13 0 -13 12v306zM359 767h-86q-12 0 -12 12.5
t12 12.5h86q12 0 12 -12.5t-12 -12.5zM550 767h-86q-12 0 -12 12.5t12 12.5h86q12 0 12 -12.5t-12 -12.5z" />
    <glyph glyph-name="Aring" unicode="&#xc5;" horiz-adv-x="793" 
d="M598 675h-394q-52 0 -91 -33.5t-39 -84.5v-221h654v221q0 51 -39 84.5t-91 33.5zM728 314h-654v-306q0 -12 -13 -12q-12 0 -12 12v549q0 62 46.5 102.5t107.5 40.5h396q61 0 107.5 -40.5t46.5 -102.5v-549q0 -12 -12 -12q-13 0 -13 12v306zM407 918q40 0 68 -26t28 -63
q0 -36 -28 -62t-68 -26q-39 0 -67 26t-28 62q0 37 28 63t67 26zM407 895q-29 0 -50 -19t-21 -47q0 -27 21 -46.5t50 -19.5q30 0 51 19.5t21 46.5q0 28 -21 47t-51 19z" />
    <glyph glyph-name="AE" unicode="&#xc6;" horiz-adv-x="1465" 
d="M730 323h-654v-315q0 -12 -13 -12q-12 0 -12 12v549q0 62 46.5 102.5t107.5 40.5h396q43 0 81.5 -22t57.5 -60q15 37 48.5 59.5t74.5 22.5h547q8 0 11.5 -6t0 -12.5t-11.5 -6.5h-547q-46 0 -77 -32t-31 -76v-220h655q8 0 11.5 -6.5t0 -12.5t-11.5 -6h-655v-159v-3v-28
q0 -44 31 -76t77 -32h547q8 0 11.5 -6t0 -12.5t-11.5 -6.5h-547q-55 0 -94 39t-39 94v29v2v160zM76 347h654v210q0 51 -39 84.5t-91 33.5h-394q-52 0 -91 -33.5t-39 -84.5v-210z" />
    <glyph glyph-name="Ccedilla" unicode="&#xc7;" horiz-adv-x="761" 
d="M343 -134q-5 11 6 16t17 -6q20 -39 66 -39q42 0 60.5 25t2 50t-60.5 26q-12 0 -12 12v50h-239q-55 0 -94.5 39.5t-39.5 92.5v435q0 53 40 93t94 40h529q8 0 12 -6t0 -12.5t-12 -6.5h-529q-45 0 -77 -32t-32 -77v-434q0 -44 32 -75.5t77 -31.5h529q8 0 12 -6t0 -12.5
t-12 -6.5h-267v-41q41 -4 62 -27.5t18 -49.5t-28 -47t-65 -21q-64 0 -89 52z" />
    <glyph glyph-name="Egrave" unicode="&#xc8;" 
d="M48 567v-96q0 -40 23.5 -73t61.5 -49q-37 -13 -61 -47t-24 -74v-96q0 -55 39 -94t94 -39h547q8 0 11.5 6.5t0 12.5t-11.5 6h-547q-46 0 -77 32t-31 76v96q0 44 31 76.5t77 32.5h547q8 0 11.5 6.5t0 12.5t-11.5 6h-547q-46 0 -77 32.5t-31 76.5v96q0 44 31 76t77 32h547
q8 0 11.5 6.5t0 12.5t-11.5 6h-547q-55 0 -94 -39t-39 -94zM323 879l187 -107q7 -4 6.5 -10.5t-6 -9t-13.5 0.5l-186 104q-7 5 -7 11t6 10.5t13 0.5z" />
    <glyph glyph-name="Eacute" unicode="&#xc9;" 
d="M48 471v96q0 55 39 94t94 39h547q8 0 11.5 -6t0 -12.5t-11.5 -6.5h-547q-46 0 -77 -32t-31 -76v-96q0 -44 31 -76.5t77 -32.5h547q8 0 11.5 -6t0 -12.5t-11.5 -6.5h-547q-46 0 -77 -32.5t-31 -76.5v-96q0 -44 31 -76t77 -32h547q8 0 11.5 -6t0 -12.5t-11.5 -6.5h-547
q-55 0 -94 39t-39 94v96q0 40 24 74t61 47q-38 16 -61.5 49t-23.5 73zM323 766l187 107q7 4 13 -0.5t6 -10.5t-7 -11l-186 -104q-7 -4 -13 -0.5t-6 9.5t6 10z" />
    <glyph glyph-name="Ecircumflex" unicode="&#xca;" 
d="M48 567v-96q0 -40 23.5 -73t61.5 -49q-37 -13 -61 -47t-24 -74v-96q0 -55 39 -94t94 -39h547q8 0 11.5 6.5t0 12.5t-11.5 6h-547q-46 0 -77 32t-31 76v96q0 44 31 76.5t77 32.5h547q8 0 11.5 6.5t0 12.5t-11.5 6h-547q-46 0 -77 32.5t-31 76.5v96q0 44 31 76t77 32h547
q8 0 11.5 6.5t0 12.5t-11.5 6h-547q-55 0 -94 -39t-39 -94zM408 851q13 7 26 0l136 -78q7 -4 6.5 -10.5t-6 -9.5t-12.5 0l-137 77l-137 -77q-7 -4 -12.5 -0.5t-5.5 9.5t6 11z" />
    <glyph glyph-name="Edieresis" unicode="&#xcb;" 
d="M48 567v-96q0 -40 23.5 -73t61.5 -49q-37 -13 -61 -47t-24 -74v-96q0 -55 39 -94t94 -39h547q8 0 11.5 6.5t0 12.5t-11.5 6h-547q-46 0 -77 32t-31 76v96q0 44 31 76.5t77 32.5h547q8 0 11.5 6.5t0 12.5t-11.5 6h-547q-46 0 -77 32.5t-31 76.5v96q0 44 31 76t77 32h547
q8 0 11.5 6.5t0 12.5t-11.5 6h-547q-55 0 -94 -39t-39 -94zM379 764h-86q-12 0 -12 12.5t12 12.5h86q12 0 12 -12.5t-12 -12.5zM570 764h-86q-12 0 -12 12.5t12 12.5h86q12 0 12 -12.5t-12 -12.5z" />
    <glyph glyph-name="Igrave" unicode="&#xcc;" horiz-adv-x="754" 
d="M391 675v-650h316q8 0 11.5 -6t0 -12.5t-11.5 -6.5h-656q-8 0 -11.5 6t-0.5 12.5t11 6.5h316v650h-316q-8 0 -11 6.5t0.5 12.5t11.5 6h656q8 0 11.5 -6t0 -12.5t-11.5 -6.5h-316zM291 878l187 -107q7 -4 6.5 -10.5t-6 -9t-13.5 0.5l-186 104q-7 5 -7 11t6 10.5t13 0.5z
" />
    <glyph glyph-name="Iacute" unicode="&#xcd;" horiz-adv-x="754" 
d="M391 675v-650h316q8 0 11.5 -6t0 -12.5t-11.5 -6.5h-656q-8 0 -11.5 6t-0.5 12.5t11 6.5h316v650h-316q-8 0 -11 6.5t0.5 12.5t11.5 6h656q8 0 11.5 -6t0 -12.5t-11.5 -6.5h-316zM280 769l187 107q7 4 13 -0.5t6 -10.5t-7 -11l-186 -104q-7 -4 -13 -0.5t-6 9.5t6 10z" />
    <glyph glyph-name="Icircumflex" unicode="&#xce;" horiz-adv-x="754" 
d="M391 675v-650h316q8 0 11.5 -6t0 -12.5t-11.5 -6.5h-656q-8 0 -11.5 6t-0.5 12.5t11 6.5h316v650h-316q-8 0 -11 6.5t0.5 12.5t11.5 6h656q8 0 11.5 -6t0 -12.5t-11.5 -6.5h-316zM364 847q13 7 26 0l136 -78q7 -4 6.5 -10.5t-6 -9.5t-12.5 0l-137 77l-137 -77
q-7 -4 -12.5 -0.5t-5.5 9.5t6 11z" />
    <glyph glyph-name="Idieresis" unicode="&#xcf;" horiz-adv-x="754" 
d="M391 675v-650h316q8 0 11.5 -6t0 -12.5t-11.5 -6.5h-656q-8 0 -11.5 6t-0.5 12.5t11 6.5h316v650h-316q-8 0 -11 6.5t0.5 12.5t11.5 6h656q8 0 11.5 -6t0 -12.5t-11.5 -6.5h-316zM325 773h-86q-12 0 -12 12.5t12 12.5h86q12 0 12 -12.5t-12 -12.5zM516 773h-86
q-12 0 -12 12.5t12 12.5h86q12 0 12 -12.5t-12 -12.5z" />
    <glyph glyph-name="Eth" unicode="&#xd0;" horiz-adv-x="807" 
d="M625 0h-531q-11 0 -18.5 8t-7.5 19v314h-65q-12 0 -12 12t12 12h65v308q0 11 7.5 19t18.5 8h530q54 0 98.5 -44t44.5 -98v-417q0 -55 -43.5 -98t-98.5 -43zM225 341h-132v-316q90 0 266 0.5t266 0.5q45 0 80.5 35t35.5 80v416q0 46 -36 82t-81 36h-531v-310h132
q12 0 12 -12t-12 -12z" />
    <glyph glyph-name="Ntilde" unicode="&#xd1;" horiz-adv-x="792" 
d="M49 570q0 38 20 68t52 45.5t71 22.5t77.5 0t70.5 -22t52.5 -44.5t20.5 -66.5v-434q0 -44 32.5 -74t78.5 -37.5t92.5 -1t79 36.5t32.5 74v557q0 12 12.5 12t12.5 -12v-557q0 -53 -37.5 -89t-90.5 -44.5t-106.5 0.5t-91 45.5t-37.5 90.5v428q0 44 -32.5 74t-79 37.5t-93 1
t-79 -36.5t-32.5 -74v-558q0 -8 -6 -11.5t-12.5 0t-6.5 11.5v558zM264 818q22 -36 63 -43q39 -6 72 22q39 34 87 26q47 -6 78 -51q7 -11 -3 -18q-8 -6 -14 4q-24 36 -64 42q-38 6 -71 -22q-40 -34 -88 -26q-47 8 -77 51q-8 10 2 18q9 6 15 -3z" />
    <glyph glyph-name="Ograve" unicode="&#xd2;" 
d="M606 0h-416q-55 0 -98 42.5t-43 97.5v418q0 55 44 98.5t98 43.5h414q54 0 98 -43.5t44 -98.5v-418q0 -55 -43 -97.5t-98 -42.5zM604 675h-412q-46 0 -82 -36.5t-36 -81.5v-417q0 -45 36 -80t81 -35h414q45 0 81 35t36 80v417q0 45 -36 81.5t-82 36.5zM310 877l187 -107
q7 -4 6.5 -10.5t-6 -9t-13.5 0.5l-186 104q-7 5 -7 11t6 10.5t13 0.5z" />
    <glyph glyph-name="Oacute" unicode="&#xd3;" 
d="M606 0h-416q-55 0 -98 42.5t-43 97.5v418q0 55 44 98.5t98 43.5h414q54 0 98 -43.5t44 -98.5v-418q0 -55 -43 -97.5t-98 -42.5zM604 675h-412q-46 0 -82 -36.5t-36 -81.5v-417q0 -45 36 -80t81 -35h414q45 0 81 35t36 80v417q0 45 -36 81.5t-82 36.5zM294 766l187 107
q7 4 13 -0.5t6 -10.5t-7 -11l-186 -104q-7 -4 -13 -0.5t-6 9.5t6 10z" />
    <glyph glyph-name="Ocircumflex" unicode="&#xd4;" 
d="M606 0h-416q-55 0 -98 42.5t-43 97.5v418q0 55 44 98.5t98 43.5h414q54 0 98 -43.5t44 -98.5v-418q0 -55 -43 -97.5t-98 -42.5zM604 675h-412q-46 0 -82 -36.5t-36 -81.5v-417q0 -45 36 -80t81 -35h414q45 0 81 35t36 80v417q0 45 -36 81.5t-82 36.5zM384 848q13 7 26 0
l136 -78q7 -4 6.5 -10.5t-6 -9.5t-12.5 0l-137 77l-137 -77q-7 -4 -12.5 -0.5t-5.5 9.5t6 11z" />
    <glyph glyph-name="Otilde" unicode="&#xd5;" 
d="M606 0h-416q-55 0 -98 42.5t-43 97.5v418q0 55 44 98.5t98 43.5h414q54 0 98 -43.5t44 -98.5v-418q0 -55 -43 -97.5t-98 -42.5zM604 675h-412q-46 0 -82 -36.5t-36 -81.5v-417q0 -45 36 -80t81 -35h414q45 0 81 35t36 80v417q0 45 -36 81.5t-82 36.5zM262 815
q22 -36 63 -43q39 -6 72 22q39 34 87 26q47 -6 78 -51q7 -11 -3 -18q-8 -6 -14 4q-24 36 -64 42q-38 6 -71 -22q-40 -34 -88 -26q-47 8 -77 51q-8 10 2 18q9 6 15 -3z" />
    <glyph glyph-name="Odieresis" unicode="&#xd6;" 
d="M606 0h-416q-55 0 -98 42.5t-43 97.5v418q0 55 44 98.5t98 43.5h414q54 0 98 -43.5t44 -98.5v-418q0 -55 -43 -97.5t-98 -42.5zM604 675h-412q-46 0 -82 -36.5t-36 -81.5v-417q0 -45 36 -80t81 -35h414q45 0 81 35t36 80v417q0 45 -36 81.5t-82 36.5zM345 768h-86
q-12 0 -12 12.5t12 12.5h86q12 0 12 -12.5t-12 -12.5zM536 768h-86q-12 0 -12 12.5t12 12.5h86q12 0 12 -12.5t-12 -12.5z" />
    <glyph glyph-name="Oslash" unicode="&#xd8;" horiz-adv-x="788" 
d="M606 0h-415q-51 0 -91 35l-52 -52q-9 -8 -17.5 0.5t-0.5 17.5l53 52q-34 39 -34 86v419q0 54 44.5 98t98.5 44h413q47 0 91 -37l53 53q9 8 17.5 -0.5t0.5 -17.5l-53 -53q34 -41 34 -87v-419q0 -54 -43.5 -96.5t-98.5 -42.5zM679 645q-34 29 -74 29h-413q-45 0 -81 -35.5
t-36 -81.5v-418q0 -38 25 -69zM118 53q33 -28 73 -28h415q45 0 81 34.5t36 79.5v418q0 37 -27 71z" />
    <glyph glyph-name="Ugrave" unicode="&#xd9;" 
d="M606 0h-416q-54 0 -97.5 43t-43.5 97v553q0 8 6.5 11.5t12.5 0t6 -11.5v-553q0 -45 36 -80t81 -35h415q45 0 80.5 35t35.5 80v553q0 8 6 11.5t12.5 0t6.5 -11.5v-553q0 -55 -43 -97.5t-98 -42.5zM289 873l187 -107q7 -4 6.5 -10.5t-6 -9t-13.5 0.5l-186 104q-7 5 -7 11
t6 10.5t13 0.5z" />
    <glyph glyph-name="Uacute" unicode="&#xda;" 
d="M606 0h-416q-54 0 -97.5 43t-43.5 97v553q0 8 6.5 11.5t12.5 0t6 -11.5v-553q0 -45 36 -80t81 -35h415q45 0 80.5 35t35.5 80v553q0 8 6 11.5t12.5 0t6.5 -11.5v-553q0 -55 -43 -97.5t-98 -42.5zM310 767l187 107q7 4 13 -0.5t6 -10.5t-7 -11l-186 -104q-7 -4 -13 -0.5
t-6 9.5t6 10z" />
    <glyph glyph-name="Ucircumflex" unicode="&#xdb;" 
d="M606 0h-416q-54 0 -97.5 43t-43.5 97v553q0 8 6.5 11.5t12.5 0t6 -11.5v-553q0 -45 36 -80t81 -35h415q45 0 80.5 35t35.5 80v553q0 8 6 11.5t12.5 0t6.5 -11.5v-553q0 -55 -43 -97.5t-98 -42.5zM382 847q13 7 26 0l136 -78q7 -4 6.5 -10.5t-6 -9.5t-12.5 0l-137 77
l-137 -77q-7 -4 -12.5 -0.5t-5.5 9.5t6 11z" />
    <glyph glyph-name="Udieresis" unicode="&#xdc;" 
d="M606 0h-416q-54 0 -97.5 43t-43.5 97v553q0 8 6.5 11.5t12.5 0t6 -11.5v-553q0 -45 36 -80t81 -35h415q45 0 80.5 35t35.5 80v553q0 8 6 11.5t12.5 0t6.5 -11.5v-553q0 -55 -43 -97.5t-98 -42.5zM348 760h-86q-12 0 -12 12.5t12 12.5h86q12 0 12 -12.5t-12 -12.5z
M539 760h-86q-12 0 -12 12.5t12 12.5h86q12 0 12 -12.5t-12 -12.5z" />
    <glyph glyph-name="Yacute" unicode="&#xdd;" horiz-adv-x="754" 
d="M377 371l325 328q9 9 18 0t0 -18l-331 -333v-338q0 -12 -12.5 -12t-12.5 12v338l-330 333q-9 9 0 18t18 0zM281 765l187 107q7 4 13 -0.5t6 -10.5t-7 -11l-186 -104q-7 -4 -13 -0.5t-6 9.5t6 10z" />
    <glyph glyph-name="Thorn" unicode="&#xde;" horiz-adv-x="760" 
d="M49 9v679q0 12 12.5 12t12.5 -12v-142h502q43 0 77.5 -21.5t52.5 -55.5t26.5 -75.5t0.5 -82.5t-25.5 -75t-52.5 -55.5t-79 -21.5h-502v-150q0 -12 -12.5 -12t-12.5 12zM74 182h501q38 0 68 18.5t45.5 48.5t22.5 66t-0.5 72.5t-23 66.5t-45 48.5t-66.5 18.5h-502v-339z
" />
    <glyph glyph-name="germandbls" unicode="&#xdf;" horiz-adv-x="781" 
d="M127 12q0 13 12 13h470q33 0 58.5 17.5t39 45t19.5 60.5t-1 66.5t-21 61t-41 45t-61 17.5h-454q-12 0 -12 12t12 12h454q47 0 78 32.5t37.5 78.5t-1.5 92t-39.5 78.5t-76.5 32.5h-406q-59 0 -89.5 -40t-30.5 -106v-519q0 -12 -13 -12q-12 0 -12 12v518q-2 74 35.5 122.5
t109.5 48.5h406q49 0 85.5 -30t49.5 -75.5t11.5 -94t-25 -90.5t-62.5 -60q41 -18 66 -59.5t27.5 -90t-10 -94.5t-48 -76t-85.5 -30h-470q-12 0 -12 12z" />
    <glyph glyph-name="agrave" unicode="&#xe0;" horiz-adv-x="790" 
d="M192 381h533v139q0 63 -32.5 109t-88.5 46h-522q-12 0 -12 12.5t12 12.5h522q70 0 108 -54t38 -125v-345q0 -71 -38 -125t-108 -54h-412q-40 0 -71 21t-47.5 55t-24.5 75t-0.5 82t23.5 75t47.5 55t72.5 21zM192 22h412q56 0 88.5 46t32.5 109v180h-533q-34 0 -60 -18.5
t-39 -48t-19 -65t0.5 -71.5t20 -65.5t39.5 -48t58 -18.5zM316 874l187 -107q7 -4 6.5 -10.5t-6 -9t-13.5 0.5l-186 104q-7 5 -7 11t6 10.5t13 0.5z" />
    <glyph glyph-name="aacute" unicode="&#xe1;" horiz-adv-x="790" 
d="M192 381h533v139q0 63 -32.5 109t-88.5 46h-522q-12 0 -12 12.5t12 12.5h522q70 0 108 -54t38 -125v-345q0 -71 -38 -125t-108 -54h-412q-40 0 -71 21t-47.5 55t-24.5 75t-0.5 82t23.5 75t47.5 55t72.5 21zM192 22h412q56 0 88.5 46t32.5 109v180h-533q-34 0 -60 -18.5
t-39 -48t-19 -65t0.5 -71.5t20 -65.5t39.5 -48t58 -18.5zM308 767l187 107q7 4 13 -0.5t6 -10.5t-7 -11l-186 -104q-7 -4 -13 -0.5t-6 9.5t6 10z" />
    <glyph glyph-name="acircumflex" unicode="&#xe2;" horiz-adv-x="790" 
d="M192 381h533v139q0 63 -32.5 109t-88.5 46h-522q-12 0 -12 12.5t12 12.5h522q70 0 108 -54t38 -125v-345q0 -71 -38 -125t-108 -54h-412q-40 0 -71 21t-47.5 55t-24.5 75t-0.5 82t23.5 75t47.5 55t72.5 21zM192 22h412q56 0 88.5 46t32.5 109v180h-533q-34 0 -60 -18.5
t-39 -48t-19 -65t0.5 -71.5t20 -65.5t39.5 -48t58 -18.5zM391 847q13 7 26 0l136 -78q7 -4 6.5 -10.5t-6 -9.5t-12.5 0l-137 77l-137 -77q-7 -4 -12.5 -0.5t-5.5 9.5t6 11z" />
    <glyph glyph-name="atilde" unicode="&#xe3;" horiz-adv-x="790" 
d="M192 381h533v139q0 63 -32.5 109t-88.5 46h-522q-12 0 -12 12.5t12 12.5h522q70 0 108 -54t38 -125v-345q0 -71 -38 -125t-108 -54h-412q-40 0 -71 21t-47.5 55t-24.5 75t-0.5 82t23.5 75t47.5 55t72.5 21zM192 22h412q56 0 88.5 46t32.5 109v180h-533q-34 0 -60 -18.5
t-39 -48t-19 -65t0.5 -71.5t20 -65.5t39.5 -48t58 -18.5zM265 819q22 -36 63 -43q39 -6 72 22q39 34 87 26q47 -6 78 -51q7 -11 -3 -18q-8 -6 -14 4q-24 36 -64 42q-38 6 -71 -22q-40 -34 -88 -26q-47 8 -77 51q-8 10 2 18q9 6 15 -3z" />
    <glyph glyph-name="adieresis" unicode="&#xe4;" horiz-adv-x="790" 
d="M192 381h533v139q0 63 -32.5 109t-88.5 46h-522q-12 0 -12 12.5t12 12.5h522q70 0 108 -54t38 -125v-345q0 -71 -38 -125t-108 -54h-412q-40 0 -71 21t-47.5 55t-24.5 75t-0.5 82t23.5 75t47.5 55t72.5 21zM192 22h412q56 0 88.5 46t32.5 109v180h-533q-34 0 -60 -18.5
t-39 -48t-19 -65t0.5 -71.5t20 -65.5t39.5 -48t58 -18.5zM346 770h-86q-12 0 -12 12.5t12 12.5h86q12 0 12 -12.5t-12 -12.5zM537 770h-86q-12 0 -12 12.5t12 12.5h86q12 0 12 -12.5t-12 -12.5z" />
    <glyph glyph-name="aring" unicode="&#xe5;" horiz-adv-x="790" 
d="M192 381h533v139q0 63 -32.5 109t-88.5 46h-522q-12 0 -12 12.5t12 12.5h522q70 0 108 -54t38 -125v-345q0 -71 -38 -125t-108 -54h-412q-40 0 -71 21t-47.5 55t-24.5 75t-0.5 82t23.5 75t47.5 55t72.5 21zM192 22h412q56 0 88.5 46t32.5 109v180h-533q-34 0 -60 -18.5
t-39 -48t-19 -65t0.5 -71.5t20 -65.5t39.5 -48t58 -18.5zM404 898q40 0 68.5 -23.5t28.5 -56.5t-28.5 -56.5t-68.5 -23.5t-68.5 23.5t-28.5 56.5t28.5 56.5t68.5 23.5zM404 877q-30 0 -51 -17t-21 -42t21 -42.5t51 -17.5q31 0 52 17.5t21 42.5t-21 42t-52 17z" />
    <glyph glyph-name="ae" unicode="&#xe6;" horiz-adv-x="1468" 
d="M192 369h533v157q-2 61 -34.5 105t-86.5 44h-522q-12 0 -12 12.5t12 12.5h522q50 0 83.5 -28.5t49.5 -74.5q18 45 56.5 74t90.5 29h400q46 0 80 -26.5t50 -65.5t16 -85.5t-15 -85.5t-49.5 -65.5t-81.5 -26.5h-534v-169v-7v-5q0 -60 32.5 -99.5t88.5 -39.5h522
q8 0 11.5 -6t0 -12.5t-11.5 -6.5h-522q-52 0 -86 26t-49 70q-38 -99 -132 -99h-412q-40 0 -71 20.5t-47.5 53.5t-24.5 72.5t-0.5 79t23.5 72.5t47.5 53.5t72.5 20.5zM192 22h412q54 0 86.5 44t34.5 105v174h-533q-34 0 -60 -18t-39 -46.5t-19 -62.5t0.5 -68.5t20 -63
t39.5 -46.5t58 -18zM1284 675h-400q-57 0 -95.5 -43t-38.5 -103v-159h534q34 0 60 17t39 43.5t19 59t-0.5 65.5t-20 59.5t-39.5 43.5t-58 17z" />
    <glyph glyph-name="ccedilla" unicode="&#xe7;" horiz-adv-x="761" 
d="M712 700q8 0 12 -6t0 -12.5t-12 -6.5h-529q-45 0 -77 -32t-32 -77v-434q0 -44 32 -75.5t77 -31.5h529q8 0 12 -6t0 -12.5t-12 -6.5h-294v-41q24 -2 41.5 -11.5t26 -22.5t11 -28t-3.5 -29.5t-17 -26.5t-30.5 -19.5t-42.5 -7.5q-64 0 -89 52q-3 7 1.5 12t11.5 5t11 -7
q19 -38 65 -38q42 0 60.5 24.5t2 49t-60.5 25.5q-12 0 -12 12v51h-210q-55 0 -94.5 39.5t-39.5 92.5v435q0 53 40 93t94 40h529z" />
    <glyph glyph-name="egrave" unicode="&#xe8;" horiz-adv-x="785" 
d="M608 336h-534l1 -172q0 -61 32 -100t88 -39h522q8 0 11.5 -6t0 -12.5t-11.5 -6.5h-522q-70 0 -108 47t-38 116v367q0 68 44 119t115 51h400q40 0 71 -20t47.5 -52t24.5 -71t0.5 -78t-23.5 -71t-47.5 -52t-72.5 -20zM608 675h-400q-57 0 -95 -43t-38 -103l-1 -168h534
q39 0 67 23.5t40.5 58t12 75.5t-13.5 75.5t-40.5 58t-65.5 23.5zM313 876l187 -107q7 -4 6.5 -10.5t-6 -9t-13.5 0.5l-186 104q-7 5 -7 11t6 10.5t13 0.5z" />
    <glyph glyph-name="eacute" unicode="&#xe9;" horiz-adv-x="785" 
d="M608 336h-534l1 -172q0 -61 32 -100t88 -39h522q8 0 11.5 -6t0 -12.5t-11.5 -6.5h-522q-70 0 -108 47t-38 116v367q0 68 44 119t115 51h400q40 0 71 -20t47.5 -52t24.5 -71t0.5 -78t-23.5 -71t-47.5 -52t-72.5 -20zM608 675h-400q-57 0 -95 -43t-38 -103l-1 -168h534
q39 0 67 23.5t40.5 58t12 75.5t-13.5 75.5t-40.5 58t-65.5 23.5zM315 766l187 107q7 4 13 -0.5t6 -10.5t-7 -11l-186 -104q-7 -4 -13 -0.5t-6 9.5t6 10z" />
    <glyph glyph-name="ecircumflex" unicode="&#xea;" horiz-adv-x="785" 
d="M608 336h-534l1 -172q0 -61 32 -100t88 -39h522q8 0 11.5 -6t0 -12.5t-11.5 -6.5h-522q-70 0 -108 47t-38 116v367q0 68 44 119t115 51h400q40 0 71 -20t47.5 -52t24.5 -71t0.5 -78t-23.5 -71t-47.5 -52t-72.5 -20zM608 675h-400q-57 0 -95 -43t-38 -103l-1 -168h534
q39 0 67 23.5t40.5 58t12 75.5t-13.5 75.5t-40.5 58t-65.5 23.5zM392 847q13 7 26 0l136 -78q7 -4 6.5 -10.5t-6 -9.5t-12.5 0l-137 77l-137 -77q-7 -4 -12.5 -0.5t-5.5 9.5t6 11z" />
    <glyph glyph-name="edieresis" unicode="&#xeb;" horiz-adv-x="785" 
d="M608 336h-534l1 -172q0 -61 32 -100t88 -39h522q8 0 11.5 -6t0 -12.5t-11.5 -6.5h-522q-70 0 -108 47t-38 116v367q0 68 44 119t115 51h400q40 0 71 -20t47.5 -52t24.5 -71t0.5 -78t-23.5 -71t-47.5 -52t-72.5 -20zM608 675h-400q-57 0 -95 -43t-38 -103l-1 -168h534
q39 0 67 23.5t40.5 58t12 75.5t-13.5 75.5t-40.5 58t-65.5 23.5zM346 777h-86q-12 0 -12 12.5t12 12.5h86q12 0 12 -12.5t-12 -12.5zM537 777h-86q-12 0 -12 12.5t12 12.5h86q12 0 12 -12.5t-12 -12.5z" />
    <glyph glyph-name="igrave" unicode="&#xec;" horiz-adv-x="760" 
d="M391 675v-650h316q8 0 11.5 -6t0 -12.5t-11.5 -6.5h-656q-8 0 -11.5 6t-0.5 12.5t11 6.5h316v650h-316q-8 0 -11 6.5t0.5 12.5t11.5 6h656q8 0 11.5 -6t0 -12.5t-11.5 -6.5h-316zM288 874l187 -107q7 -4 6.5 -10.5t-6 -9t-13.5 0.5l-186 104q-7 5 -7 11t6 10.5t13 0.5z
" />
    <glyph glyph-name="iacute" unicode="&#xed;" horiz-adv-x="760" 
d="M391 675v-650h316q8 0 11.5 -6t0 -12.5t-11.5 -6.5h-656q-8 0 -11.5 6t-0.5 12.5t11 6.5h316v650h-316q-8 0 -11 6.5t0.5 12.5t11.5 6h656q8 0 11.5 -6t0 -12.5t-11.5 -6.5h-316zM279 768l187 107q7 4 13 -0.5t6 -10.5t-7 -11l-186 -104q-7 -4 -13 -0.5t-6 9.5t6 10z" />
    <glyph glyph-name="icircumflex" unicode="&#xee;" horiz-adv-x="760" 
d="M391 675v-650h316q8 0 11.5 -6t0 -12.5t-11.5 -6.5h-656q-8 0 -11.5 6t-0.5 12.5t11 6.5h316v650h-316q-8 0 -11 6.5t0.5 12.5t11.5 6h656q8 0 11.5 -6t0 -12.5t-11.5 -6.5h-316zM366 849q13 7 26 0l136 -78q7 -4 6.5 -10.5t-6 -9.5t-12.5 0l-137 77l-137 -77
q-7 -4 -12.5 -0.5t-5.5 9.5t6 11z" />
    <glyph glyph-name="idieresis" unicode="&#xef;" horiz-adv-x="760" 
d="M391 675v-650h316q8 0 11.5 -6t0 -12.5t-11.5 -6.5h-656q-8 0 -11.5 6t-0.5 12.5t11 6.5h316v650h-316q-8 0 -11 6.5t0.5 12.5t11.5 6h656q8 0 11.5 -6t0 -12.5t-11.5 -6.5h-316zM326 768h-86q-12 0 -12 12.5t12 12.5h86q12 0 12 -12.5t-12 -12.5zM517 768h-86
q-12 0 -12 12.5t12 12.5h86q12 0 12 -12.5t-12 -12.5z" />
    <glyph glyph-name="eth" unicode="&#xf0;" horiz-adv-x="759" 
d="M592 0h-414q-40 0 -71.5 21.5t-47.5 56t-23.5 75.5t0.5 82.5t24 76t47.5 56t70.5 21.5h414q12 0 18 -1l-137 140l-75 -66q-7 -6 -13.5 -3.5t-7 9.5t4.5 12l74 65l-141 142q-9 9 0 18t18 0l142 -144l74 66q6 5 13 3t8.5 -8t-4.5 -12l-75 -66l187 -189l9 -9
q44 -51 50.5 -133.5t-32.5 -147.5t-113 -65zM592 364h-414q-45 0 -76 -35t-38.5 -84.5t-1 -99.5t38 -85t78.5 -35h413q34 0 60 18.5t39 48.5t19 66t-0.5 72.5t-20 66.5t-39.5 48.5t-58 18.5z" />
    <glyph glyph-name="ntilde" unicode="&#xf1;" horiz-adv-x="793" 
d="M49 570q0 38 20 68t52 45.5t71 22.5t77.5 0t70.5 -22t52.5 -44.5t20.5 -66.5v-434q0 -44 32.5 -74t78.5 -37.5t92.5 -1t79 36.5t32.5 74v557q0 12 12.5 12t12.5 -12v-557q0 -53 -37.5 -89t-90.5 -44.5t-106.5 0.5t-91 45.5t-37.5 90.5v428q0 44 -32.5 74t-79 37.5t-93 1
t-79 -36.5t-32.5 -74v-558q0 -8 -6 -11.5t-12.5 0t-6.5 11.5v558zM265 821q22 -36 63 -43q39 -6 72 22q39 34 87 26q47 -6 78 -51q7 -11 -3 -18q-8 -6 -14 4q-24 36 -64 42q-38 6 -71 -22q-40 -34 -88 -26q-47 8 -77 51q-8 10 2 18q9 6 15 -3z" />
    <glyph glyph-name="ograve" unicode="&#xf2;" 
d="M606 0h-416q-55 0 -98 42.5t-43 97.5v418q0 55 44 98.5t98 43.5h414q54 0 98 -43.5t44 -98.5v-418q0 -55 -43 -97.5t-98 -42.5zM604 675h-412q-46 0 -82 -36.5t-36 -81.5v-417q0 -45 36 -80t81 -35h414q45 0 81 35t36 80v417q0 45 -36 81.5t-82 36.5zM298 875l187 -107
q7 -4 6.5 -10.5t-6 -9t-13.5 0.5l-186 104q-7 5 -7 11t6 10.5t13 0.5z" />
    <glyph glyph-name="oacute" unicode="&#xf3;" 
d="M606 0h-416q-55 0 -98 42.5t-43 97.5v418q0 55 44 98.5t98 43.5h414q54 0 98 -43.5t44 -98.5v-418q0 -55 -43 -97.5t-98 -42.5zM604 675h-412q-46 0 -82 -36.5t-36 -81.5v-417q0 -45 36 -80t81 -35h414q45 0 81 35t36 80v417q0 45 -36 81.5t-82 36.5zM300 765l187 107
q7 4 13 -0.5t6 -10.5t-7 -11l-186 -104q-7 -4 -13 -0.5t-6 9.5t6 10z" />
    <glyph glyph-name="ocircumflex" unicode="&#xf4;" 
d="M606 0h-416q-55 0 -98 42.5t-43 97.5v418q0 55 44 98.5t98 43.5h414q54 0 98 -43.5t44 -98.5v-418q0 -55 -43 -97.5t-98 -42.5zM604 675h-412q-46 0 -82 -36.5t-36 -81.5v-417q0 -45 36 -80t81 -35h414q45 0 81 35t36 80v417q0 45 -36 81.5t-82 36.5zM384 850q13 7 26 0
l136 -78q7 -4 6.5 -10.5t-6 -9.5t-12.5 0l-137 77l-137 -77q-7 -4 -12.5 -0.5t-5.5 9.5t6 11z" />
    <glyph glyph-name="otilde" unicode="&#xf5;" 
d="M606 0h-416q-55 0 -98 42.5t-43 97.5v418q0 55 44 98.5t98 43.5h414q54 0 98 -43.5t44 -98.5v-418q0 -55 -43 -97.5t-98 -42.5zM604 675h-412q-46 0 -82 -36.5t-36 -81.5v-417q0 -45 36 -80t81 -35h414q45 0 81 35t36 80v417q0 45 -36 81.5t-82 36.5zM275 826
q22 -36 63 -43q39 -6 72 22q39 34 87 26q47 -6 78 -51q7 -11 -3 -18q-8 -6 -14 4q-24 36 -64 42q-38 6 -71 -22q-40 -34 -88 -26q-47 8 -77 51q-8 10 2 18q9 6 15 -3z" />
    <glyph glyph-name="odieresis" unicode="&#xf6;" 
d="M606 0h-416q-55 0 -98 42.5t-43 97.5v418q0 55 44 98.5t98 43.5h414q54 0 98 -43.5t44 -98.5v-418q0 -55 -43 -97.5t-98 -42.5zM604 675h-412q-46 0 -82 -36.5t-36 -81.5v-417q0 -45 36 -80t81 -35h414q45 0 81 35t36 80v417q0 45 -36 81.5t-82 36.5zM350 779h-86
q-12 0 -12 12.5t12 12.5h86q12 0 12 -12.5t-12 -12.5zM541 779h-86q-12 0 -12 12.5t12 12.5h86q12 0 12 -12.5t-12 -12.5z" />
    <glyph glyph-name="oslash" unicode="&#xf8;" horiz-adv-x="788" 
d="M606 0h-415q-51 0 -91 35l-52 -52q-9 -8 -17.5 0.5t-0.5 17.5l53 52q-34 39 -34 86v419q0 54 44.5 98t98.5 44h413q47 0 91 -37l53 53q9 8 17.5 -0.5t0.5 -17.5l-53 -53q34 -41 34 -87v-419q0 -54 -43.5 -96.5t-98.5 -42.5zM679 645q-34 29 -74 29h-413q-45 0 -81 -35.5
t-36 -81.5v-418q0 -38 25 -69zM118 53q33 -28 73 -28h415q45 0 81 34.5t36 79.5v418q0 37 -27 71z" />
    <glyph glyph-name="ugrave" unicode="&#xf9;" 
d="M606 0h-416q-54 0 -97.5 43t-43.5 97v553q0 8 6.5 11.5t12.5 0t6 -11.5v-553q0 -45 36 -80t81 -35h415q45 0 80.5 35t35.5 80v553q0 8 6 11.5t12.5 0t6.5 -11.5v-553q0 -55 -43 -97.5t-98 -42.5zM304 877l187 -107q7 -4 6.5 -10.5t-6 -9t-13.5 0.5l-186 104q-7 5 -7 11
t6 10.5t13 0.5z" />
    <glyph glyph-name="uacute" unicode="&#xfa;" 
d="M606 0h-416q-54 0 -97.5 43t-43.5 97v553q0 8 6.5 11.5t12.5 0t6 -11.5v-553q0 -45 36 -80t81 -35h415q45 0 80.5 35t35.5 80v553q0 8 6 11.5t12.5 0t6.5 -11.5v-553q0 -55 -43 -97.5t-98 -42.5zM300 770l187 107q7 4 13 -0.5t6 -10.5t-7 -11l-186 -104q-7 -4 -13 -0.5
t-6 9.5t6 10z" />
    <glyph glyph-name="ucircumflex" unicode="&#xfb;" 
d="M606 0h-416q-54 0 -97.5 43t-43.5 97v553q0 8 6.5 11.5t12.5 0t6 -11.5v-553q0 -45 36 -80t81 -35h415q45 0 80.5 35t35.5 80v553q0 8 6 11.5t12.5 0t6.5 -11.5v-553q0 -55 -43 -97.5t-98 -42.5zM385 846q13 7 26 0l136 -78q7 -4 6.5 -10.5t-6 -9.5t-12.5 0l-137 77
l-137 -77q-7 -4 -12.5 -0.5t-5.5 9.5t6 11z" />
    <glyph glyph-name="udieresis" unicode="&#xfc;" 
d="M606 0h-416q-54 0 -97.5 43t-43.5 97v553q0 8 6.5 11.5t12.5 0t6 -11.5v-553q0 -45 36 -80t81 -35h415q45 0 80.5 35t35.5 80v553q0 8 6 11.5t12.5 0t6.5 -11.5v-553q0 -55 -43 -97.5t-98 -42.5zM339 780h-86q-12 0 -12 12.5t12 12.5h86q12 0 12 -12.5t-12 -12.5z
M530 780h-86q-12 0 -12 12.5t12 12.5h86q12 0 12 -12.5t-12 -12.5z" />
    <glyph glyph-name="yacute" unicode="&#xfd;" horiz-adv-x="792" 
d="M193 339q-71 0 -108.5 45t-37.5 117v189q0 8 6.5 12t13 0t6.5 -12v-189q0 -61 30.5 -99t89.5 -38h534l-1 328q0 13 13 13t13 -13v-513q0 -71 -38.5 -125t-107.5 -54h-522q-8 0 -11.5 6t0 12t11.5 6h522q56 0 88.5 46.5t32.5 109.5v159h-534zM314 766l187 107q7 4 13 -0.5
t6 -10.5t-7 -11l-186 -104q-7 -4 -13 -0.5t-6 9.5t6 10z" />
    <glyph glyph-name="thorn" unicode="&#xfe;" horiz-adv-x="760" 
d="M49 9v679q0 12 12.5 12t12.5 -12v-142h502q43 0 77.5 -21.5t52.5 -55.5t26.5 -75.5t0.5 -82.5t-25.5 -75t-52.5 -55.5t-79 -21.5h-502v-150q0 -12 -12.5 -12t-12.5 12zM74 182h501q38 0 68 18.5t45.5 48.5t22.5 66t-0.5 72.5t-23 66.5t-45 48.5t-66.5 18.5h-502v-339z
" />
    <glyph glyph-name="ydieresis" unicode="&#xff;" horiz-adv-x="792" 
d="M193 339h534v-159q0 -63 -32.5 -109.5t-88.5 -46.5h-522q-8 0 -11.5 -6t0 -12t11.5 -6h522q69 0 107.5 54t38.5 125v513q0 13 -13 13t-13 -13l1 -328h-534q-59 0 -89.5 38t-30.5 99v189q0 8 -6.5 12t-13 0t-6.5 -12v-189q0 -72 37.5 -117t108.5 -45zM357 776h-86
q-12 0 -12 12.5t12 12.5h86q12 0 12 -12.5t-12 -12.5zM548 776h-86q-12 0 -12 12.5t12 12.5h86q12 0 12 -12.5t-12 -12.5z" />
    <glyph glyph-name="dotlessi" unicode="&#x131;" horiz-adv-x="760" 
d="M391 675v-650h316q8 0 11.5 -6t0 -12.5t-11.5 -6.5h-656q-8 0 -11.5 6t-0.5 12.5t11 6.5h316v650h-316q-8 0 -11 6.5t0.5 12.5t11.5 6h656q8 0 11.5 -6t0 -12.5t-11.5 -6.5h-316z" />
    <glyph glyph-name="Lslash" unicode="&#x141;" horiz-adv-x="778" 
d="M90 693q0 8 6 11.5t12.5 0t6.5 -11.5v-323l130 71q7 4 12.5 0t5.5 -10t-6 -11l-142 -78v-208q0 -45 32 -77t77 -32h516q8 0 12 -6t0 -12.5t-12 -6.5h-516q-55 0 -94.5 39.5t-39.5 94.5v195l-72 -39q-7 -4 -13 0t-6 10t6 11l85 46v336z" />
    <glyph glyph-name="lslash" unicode="&#x142;" horiz-adv-x="784" 
d="M94 693q0 8 6 11.5t12.5 0t6.5 -11.5v-323l130 71q7 4 12.5 0t5.5 -10t-6 -11l-142 -78v-208q0 -45 32 -77t77 -32h516q8 0 12 -6t0 -12.5t-12 -6.5h-516q-55 0 -94.5 39.5t-39.5 94.5v195l-72 -39q-7 -4 -13 0t-6 10t6 11l85 46v336z" />
    <glyph glyph-name="OE" unicode="&#x152;" horiz-adv-x="1456" 
d="M747 228v-96q0 -44 31 -75.5t77 -31.5h547q8 0 11.5 -6t0 -12.5t-11.5 -6.5h-547q-41 0 -74.5 22t-48.5 59q-18 -36 -53 -58.5t-73 -22.5h-416q-55 0 -98 42.5t-43 97.5v418q0 55 44 98.5t98 43.5h414q37 0 72.5 -24t54.5 -60q15 37 48.5 60.5t74.5 23.5h547q8 0 11.5 -6
t0 -12.5t-11.5 -6.5h-547q-46 0 -77 -32t-31 -76v-4v-5v-87q0 -44 31 -76.5t77 -32.5h547q8 0 11.5 -6t0 -12.5t-11.5 -6.5h-547q-46 0 -77 -32.5t-31 -76.5zM604 675h-412q-46 0 -82 -36.5t-36 -81.5v-417q0 -45 36 -80t81 -35h414q44 0 79.5 33.5t37.5 76.5v93q0 40 24 74
t61 47q-38 16 -61.5 49t-23.5 73v90q-2 44 -38 79t-80 35z" />
    <glyph glyph-name="oe" unicode="&#x153;" horiz-adv-x="1459" 
d="M607 0h-416q-55 0 -98 42.5t-43 97.5v418q0 55 44 98.5t98 43.5h414q40 0 77 -26.5t54 -65.5q19 42 56.5 67t88.5 25h400q40 0 71 -20t47.5 -52t24.5 -71t0.5 -78t-23.5 -71t-47.5 -52t-72.5 -20h-534v-172q0 -60 32.5 -99.5t88.5 -39.5h522q8 0 11.5 -6t0 -12.5
t-11.5 -6.5h-522q-97 0 -133 88q-17 -38 -52.5 -63t-76.5 -25zM605 675h-412q-46 0 -82 -36.5t-36 -81.5v-417q0 -45 36 -80t81 -35h414q45 0 81 35t36 80v417q0 45 -36 81.5t-82 36.5zM1282 676h-400q-58 0 -96 -39.5t-38 -99.5v-176h534q34 0 60 17.5t39 45t19 61
t-0.5 67.5t-20 61.5t-39.5 45t-58 17.5z" />
    <glyph glyph-name="Scaron" unicode="&#x160;" horiz-adv-x="794" 
d="M615 0q38 0 68.5 20t46 51.5t23 70t0 77.5t-22.5 70.5t-44.5 51.5t-67.5 20h-434q-44 0 -74 32.5t-37 78.5t-0.5 92t36 78.5t73.5 32.5h528q8 0 11.5 6.5t0 12.5t-11.5 6h-528q-53 0 -89 -37.5t-44.5 -91t0.5 -107t45.5 -91t90.5 -37.5h428q44 0 74 -32.5t37.5 -78t1 -91
t-36 -77.5t-73.5 -32h-550q-12 0 -12 -12.5t12 -12.5h549zM421 750q-13 -7 -26 0l-136 78q-7 4 -6.5 10.5t6 9.5t12.5 0l137 -77l137 77q7 4 12.5 0.5t5.5 -9.5t-6 -11z" />
    <glyph glyph-name="scaron" unicode="&#x161;" horiz-adv-x="794" 
d="M615 0q38 0 68.5 20t46 51.5t23 70t0 77.5t-22.5 70.5t-44.5 51.5t-67.5 20h-434q-44 0 -74 32.5t-37 78.5t-0.5 92t36 78.5t73.5 32.5h528q8 0 11.5 6.5t0 12.5t-11.5 6h-528q-53 0 -89 -37.5t-44.5 -91t0.5 -107t45.5 -91t90.5 -37.5h428q44 0 74 -32.5t37.5 -78t1 -91
t-36 -77.5t-73.5 -32h-550q-12 0 -12 -12.5t12 -12.5h549zM427 750q-13 -7 -26 0l-136 78q-7 4 -6.5 10.5t6 9.5t12.5 0l137 -77l137 77q7 4 12.5 0.5t5.5 -9.5t-6 -11z" />
    <glyph glyph-name="Ydieresis" unicode="&#x178;" horiz-adv-x="754" 
d="M377 371l325 328q9 9 18 0t0 -18l-331 -333v-338q0 -12 -12.5 -12t-12.5 12v338l-330 333q-9 9 0 18t18 0zM324 765h-86q-12 0 -12 12.5t12 12.5h86q12 0 12 -12.5t-12 -12.5zM515 765h-86q-12 0 -12 12.5t12 12.5h86q12 0 12 -12.5t-12 -12.5z" />
    <glyph glyph-name="Zcaron" unicode="&#x17d;" horiz-adv-x="787" 
d="M72 149q99 66 311.5 206.5t322.5 215.5q35 23 22.5 63.5t-55.5 40.5h-609q-12 0 -12 12.5t12 12.5h609q40 0 63.5 -28t19.5 -64t-34 -57q-94 -63 -307.5 -204t-326.5 -217q-35 -23 -22.5 -64t55.5 -41h624q12 0 12 -12.5t-12 -12.5h-624q-39 0 -62.5 28.5t-20 64.5
t33.5 56zM422 752q-13 -7 -26 0l-136 78q-7 4 -6.5 10.5t6 9.5t12.5 0l137 -77l137 77q7 4 12.5 0.5t5.5 -9.5t-6 -11z" />
    <glyph glyph-name="zcaron" unicode="&#x17e;" horiz-adv-x="785" 
d="M70 149q99 66 311.5 206.5t322.5 215.5q35 23 22.5 63.5t-55.5 40.5h-609q-12 0 -12 12.5t12 12.5h609q40 0 63.5 -28t19.5 -64t-34 -57q-94 -63 -307.5 -204t-326.5 -217q-35 -23 -22.5 -64t55.5 -41h624q12 0 12 -12.5t-12 -12.5h-624q-39 0 -62.5 28.5t-20 64.5
t33.5 56zM430 751q-13 -7 -26 0l-136 78q-7 4 -6.5 10.5t6 9.5t12.5 0l137 -77l137 77q7 4 12.5 0.5t5.5 -9.5t-6 -11z" />
    <glyph glyph-name="florin" unicode="&#x192;" horiz-adv-x="776" 
d="M730 356q8 0 12 -6t0 -12t-12 -6h-656v-324q0 -12 -12.5 -12t-12.5 12v549q0 62 46.5 102.5t107.5 40.5h528q8 0 11.5 -6t0 -12.5t-11.5 -6.5h-527q-52 0 -91 -33.5t-39 -84.5v-201h656z" />
    <glyph glyph-name="circumflex" unicode="&#x2c6;" horiz-adv-x="373" 
d="M170 691q13 7 26 0l136 -78q7 -4 6.5 -10.5t-6 -9.5t-12.5 0l-137 77l-137 -77q-7 -4 -12.5 -0.5t-5.5 9.5t6 11z" />
    <glyph glyph-name="caron" unicode="&#x2c7;" horiz-adv-x="353" 
d="M184 599q-13 -7 -26 0l-136 78q-7 4 -6.5 10.5t6 9.5t12.5 0l137 -77l137 77q7 4 12.5 0.5t5.5 -9.5t-6 -11z" />
    <glyph glyph-name="ring" unicode="&#x2da;" horiz-adv-x="249" 
d="M125 706q40 0 68 -26t28 -63q0 -36 -28 -62t-68 -26q-39 0 -67 26t-28 62q0 37 28 63t67 26zM125 683q-29 0 -50 -19t-21 -47q0 -27 21 -46.5t50 -19.5q30 0 51 19.5t21 46.5q0 28 -21 47t-51 19z" />
    <glyph glyph-name="tilde" unicode="&#x2dc;" horiz-adv-x="389" 
d="M46 700q22 -36 63 -43q39 -6 72 22q39 34 87 26q47 -6 78 -51q7 -11 -3 -18q-8 -6 -14 4q-24 36 -64 42q-38 6 -71 -22q-40 -34 -88 -26q-47 8 -77 51q-8 10 2 18q9 6 15 -3z" />
    <glyph glyph-name="quotesinglbase" unicode="&#x201a;" horiz-adv-x="143" 
d="M92 26v-86q0 -10 -7.5 -14t-15 0t-7.5 14v86q0 14 15 14t15 -14z" />
    <glyph glyph-name="quotedblbase" unicode="&#x201e;" horiz-adv-x="247" 
d="M92 26v-86q0 -10 -7.5 -14t-15 0t-7.5 14v86q0 14 15 14t15 -14zM191 26v-86q0 -10 -7.5 -14t-15 0t-7.5 14v86q0 14 15 14t15 -14z" />
    <glyph glyph-name="ellipsis" unicode="&#x2026;" horiz-adv-x="312" 
d="M69 38q9 0 15 -6t6 -15q0 -21 -21 -21q-22 0 -22 21q0 9 6.5 15t15.5 6zM163 38q9 0 15 -6t6 -15q0 -21 -21 -21q-22 0 -22 21q0 9 6.5 15t15.5 6zM251 38q9 0 15.5 -6t6.5 -15q0 -21 -22 -21t-22 21q0 9 6.5 15t15.5 6z" />
    </font>
</defs>
</svg>
